<svg xmlns="http://www.w3.org/2000/svg" xmlns:xlink="http://www.w3.org/1999/xlink" width="500" zoomAndPan="magnify"
     viewBox="0 0 375 374.999991" height="500" preserveAspectRatio="xMidYMid meet" version="1.0">
    <path fill="rgb(47.839355%, 32.548523%, 83.529663%)"
          d="M 341.417969 196.09375 L 325.417969 189.074219 C 323.804688 175.871094 319.617188 162.878906 312.800781 150.902344 C 323.089844 153.265625 334.328125 150.851562 342.917969 143.410156 C 357.210938 131.019531 358.757812 109.382812 346.371094 95.082031 C 333.988281 80.78125 312.359375 79.234375 298.0625 91.625 C 289.472656 99.0625 285.488281 109.847656 286.359375 120.371094 C 275.476562 111.917969 263.226562 105.921875 250.386719 102.441406 L 245.722656 85.605469 C 236.558594 83.847656 227.210938 83.179688 217.890625 83.613281 L 194.480469 134.457031 C 230.324219 116.421875 275.148438 124.207031 302.621094 155.925781 C 320.5625 176.636719 327.34375 203.222656 323.507812 228.34375 L 339.425781 223.9375 C 341.179688 214.765625 341.847656 205.417969 341.417969 196.09375 "
          fill-opacity="1" fill-rule="nonzero"/>
    <path fill="rgb(95.289612%, 72.549438%, 19.999695%)"
          d="M 325.710938 235.421875 C 314.976562 231.703125 303.644531 233.640625 294.96875 239.660156 C 296.847656 226.003906 295.914062 212.390625 292.503906 199.527344 L 304.75 187.070312 C 301.691406 178.25 297.59375 169.816406 292.558594 161.957031 L 236.835938 167.101562 C 270.375 189.136719 286.050781 231.863281 272.324219 271.527344 C 263.363281 297.421875 243.738281 316.589844 220.070312 325.824219 L 231.851562 337.410156 C 240.664062 334.351562 249.09375 330.25 256.945312 325.214844 L 255.023438 307.851562 C 265.652344 299.847656 274.800781 289.722656 281.761719 277.835938 C 284.859375 287.929688 292.566406 296.457031 303.308594 300.175781 C 321.179688 306.367188 340.683594 296.886719 346.875 279.007812 C 353.0625 261.125 343.585938 241.613281 325.710938 235.421875 "
          fill-opacity="1" fill-rule="nonzero"/>
    <path fill="rgb(47.839355%, 32.548523%, 83.529663%)"
          d="M 102.929688 316.601562 L 117 306.246094 C 129.242188 311.453125 142.582031 314.320312 156.355469 314.40625 C 149.167969 322.140625 145.636719 333.078125 147.785156 344.242188 C 151.367188 362.820312 169.324219 374.980469 187.894531 371.402344 C 206.472656 367.820312 218.625 349.855469 215.050781 331.277344 C 212.898438 320.113281 205.554688 311.269531 196.007812 306.761719 C 208.765625 301.5625 220.085938 293.941406 229.519531 284.558594 L 246.425781 288.941406 C 252.527344 281.878906 257.785156 274.117188 262.070312 265.828125 L 229.753906 220.121094 C 227.445312 260.191406 198.296875 295.132812 157.097656 303.074219 C 130.195312 308.261719 103.792969 300.84375 83.960938 284.957031 L 79.820312 300.953125 C 86.878906 307.054688 94.640625 312.3125 102.929688 316.601562 "
          fill-opacity="1" fill-rule="nonzero"/>
    <path fill="rgb(95.289612%, 72.549438%, 19.999695%)"
          d="M 33.378906 178.859375 L 49.378906 185.875 C 50.988281 199.082031 55.179688 212.074219 61.992188 224.046875 C 51.703125 221.6875 40.46875 224.097656 31.878906 231.542969 C 17.582031 243.933594 16.035156 265.570312 28.421875 279.871094 C 40.808594 294.171875 62.4375 295.71875 76.734375 283.328125 C 85.320312 275.882812 89.308594 265.105469 88.4375 254.582031 C 99.316406 263.03125 111.570312 269.027344 124.410156 272.507812 L 129.074219 289.347656 C 138.238281 291.105469 147.585938 291.773438 156.90625 291.339844 L 180.316406 240.492188 C 144.472656 258.53125 99.648438 250.746094 72.171875 219.027344 C 54.234375 198.3125 47.453125 171.726562 51.289062 146.609375 L 35.371094 151.015625 C 33.617188 160.1875 32.949219 169.535156 33.378906 178.859375 "
          fill-opacity="1" fill-rule="nonzero"/>
    <path fill="rgb(47.839355%, 32.548523%, 83.529663%)"
          d="M 117.847656 49.738281 L 119.773438 67.101562 C 109.144531 75.101562 99.996094 85.230469 93.03125 97.117188 C 89.933594 87.023438 82.230469 78.496094 71.492188 74.777344 C 53.617188 68.585938 34.109375 78.066406 27.921875 95.945312 C 21.734375 113.828125 31.207031 133.339844 49.082031 139.53125 C 59.820312 143.25 71.148438 141.3125 79.824219 135.292969 C 77.949219 148.949219 78.882812 162.5625 82.289062 175.421875 L 70.042969 187.882812 C 73.105469 196.699219 77.199219 205.132812 82.234375 212.992188 L 137.960938 207.847656 C 104.421875 185.816406 88.746094 143.089844 102.472656 103.425781 C 111.433594 77.527344 131.058594 58.363281 154.726562 49.125 L 142.949219 37.539062 C 134.132812 40.601562 125.703125 44.699219 117.847656 49.738281 "
          fill-opacity="1" fill-rule="nonzero"/>
    <path fill="rgb(95.289612%, 72.549438%, 19.999695%)"
          d="M 271.867188 58.351562 L 257.792969 68.703125 C 245.554688 63.5 232.214844 60.632812 218.4375 60.546875 C 225.628906 52.8125 229.15625 41.875 227.011719 30.710938 C 223.429688 12.132812 205.472656 -0.03125 186.898438 3.550781 C 168.324219 7.132812 156.167969 25.097656 159.75 43.675781 C 161.898438 54.835938 169.238281 63.683594 178.785156 68.1875 C 166.027344 73.390625 154.707031 81.007812 145.277344 90.390625 L 128.367188 86.011719 C 122.265625 93.070312 117.011719 100.835938 112.726562 109.125 L 145.042969 154.832031 C 147.347656 114.761719 176.5 79.816406 217.699219 71.878906 C 244.601562 66.691406 271.003906 74.109375 290.835938 89.996094 L 294.972656 73.996094 C 287.914062 67.898438 280.15625 62.640625 271.867188 58.351562 "
          fill-opacity="1" fill-rule="nonzero"/>
</svg>
